<svg width="516" height="79" viewBox="0 0 516 79" fill="none" xmlns="http://www.w3.org/2000/svg">
<path d="M1.03693 77H16.1648V22.4545H1.03693V77ZM8.63636 15.4233C13.1463 15.4233 16.8395 11.9787 16.8395 7.75284C16.8395 3.5625 13.1463 0.117894 8.63636 0.117894C4.16193 0.117894 0.46875 3.5625 0.46875 7.75284C0.46875 11.9787 4.16193 15.4233 8.63636 15.4233ZM43.4109 45.4659C43.4464 38.4347 47.6367 34.3153 53.7447 34.3153C59.8171 34.3153 63.4748 38.2926 63.4393 44.9688V77H78.5671V42.2699C78.5671 29.5568 71.1097 21.7443 59.7461 21.7443C51.6495 21.7443 45.7901 25.7216 43.3398 32.0781H42.7006V22.4545H28.283V77H43.4109V45.4659ZM135.874 38.0085C134.524 27.9588 126.428 21.7443 112.649 21.7443C98.6932 21.7443 89.4957 28.2074 89.5312 38.7188C89.4957 46.8864 94.6449 52.1776 105.298 54.3082L114.744 56.1903C119.503 57.1491 121.669 58.8892 121.74 61.6236C121.669 64.8551 118.153 67.1634 112.862 67.1634C107.464 67.1634 103.878 64.8551 102.955 60.4162L88.0753 61.1974C89.4957 71.6378 98.3736 78.0653 112.827 78.0653C126.96 78.0653 137.081 70.8565 137.116 60.0966C137.081 52.2131 131.932 47.4901 121.349 45.3239L111.477 43.3352C106.399 42.2344 104.517 40.4943 104.553 37.8665C104.517 34.5994 108.21 32.4688 112.898 32.4688C118.153 32.4688 121.278 35.3452 122.024 38.8608L135.874 38.0085ZM175.655 22.4545H165.392V9.38636H150.265V22.4545H142.807V33.8182H150.265V62.2273C150.194 72.9162 157.473 78.2074 168.446 77.7457C172.353 77.6037 175.123 76.8224 176.65 76.3253L174.27 65.0682C173.525 65.2102 171.926 65.5653 170.506 65.5653C167.488 65.5653 165.392 64.429 165.392 60.2386V33.8182H175.655V22.4545ZM201.064 78.0298C209.125 78.0298 214.345 74.5142 217.008 69.4361H217.434V77H231.781V40.2102C231.781 27.2131 220.772 21.7443 208.627 21.7443C195.559 21.7443 186.966 27.9943 184.87 37.9375L198.862 39.0739C199.892 35.4517 203.123 32.7884 208.556 32.7884C213.706 32.7884 216.653 35.3807 216.653 39.8551V40.0682C216.653 43.5838 212.924 44.0455 203.443 44.9688C192.647 45.9631 182.953 49.5852 182.953 61.7656C182.953 72.5611 190.659 78.0298 201.064 78.0298ZM205.396 67.5895C200.744 67.5895 197.406 65.4233 197.406 61.2685C197.406 57.0071 200.922 54.9119 206.248 54.1662C209.551 53.7045 214.949 52.9233 216.76 51.7159V57.5043C216.76 63.2216 212.037 67.5895 205.396 67.5895ZM272.53 22.4545H262.267V9.38636H247.14V22.4545H239.682V33.8182H247.14V62.2273C247.069 72.9162 254.348 78.2074 265.321 77.7457C269.228 77.6037 271.998 76.8224 273.525 76.3253L271.145 65.0682C270.4 65.2102 268.801 65.5653 267.381 65.5653C264.363 65.5653 262.267 64.429 262.267 60.2386V33.8182H272.53V22.4545ZM317.363 53.7756C317.399 61.0909 312.392 64.9261 306.958 64.9261C301.241 64.9261 297.548 60.9134 297.512 54.4858V22.4545H282.385V57.1847C282.42 69.9332 289.877 77.7102 300.85 77.7102C309.054 77.7102 314.949 73.4844 317.399 67.0923H317.967V77H332.491V22.4545H317.363V53.7756ZM389.975 38.0085C388.626 27.9588 380.529 21.7443 366.751 21.7443C352.795 21.7443 343.597 28.2074 343.633 38.7188C343.597 46.8864 348.746 52.1776 359.4 54.3082L368.846 56.1903C373.604 57.1491 375.771 58.8892 375.842 61.6236C375.771 64.8551 372.255 67.1634 366.964 67.1634C361.566 67.1634 357.979 64.8551 357.056 60.4162L342.177 61.1974C343.597 71.6378 352.475 78.0653 366.928 78.0653C381.062 78.0653 391.183 70.8565 391.218 60.0966C391.183 52.2131 386.033 47.4901 375.451 45.3239L365.579 43.3352C360.501 42.2344 358.619 40.4943 358.654 37.8665C358.619 34.5994 362.312 32.4688 366.999 32.4688C372.255 32.4688 375.38 35.3452 376.126 38.8608L389.975 38.0085Z" fill="#3D3F42"/>
<path d="M409.586 77.9233C414.132 77.9233 418.074 74.1236 418.109 69.4006C418.074 64.7486 414.132 60.9489 409.586 60.9489C404.899 60.9489 401.028 64.7486 401.064 69.4006C401.028 74.1236 404.899 77.9233 409.586 77.9233Z" fill="url(#paint0_linear)"/>
<path d="M459.542 22.4545H449.279V9.38636H434.151V22.4545H426.694V33.8182H434.151V62.2273C434.08 72.9162 441.36 78.2074 452.333 77.7457C456.239 77.6037 459.009 76.8224 460.536 76.3253L458.157 65.0682C457.411 65.2102 455.813 65.5653 454.393 65.5653C451.374 65.5653 449.279 64.429 449.279 60.2386V33.8182H459.542V22.4545ZM513.999 38.0085C512.649 27.9588 504.553 21.7443 490.774 21.7443C476.818 21.7443 467.621 28.2074 467.656 38.7188C467.621 46.8864 472.77 52.1776 483.423 54.3082L492.869 56.1903C497.628 57.1491 499.794 58.8892 499.865 61.6236C499.794 64.8551 496.278 67.1634 490.987 67.1634C485.589 67.1634 482.003 64.8551 481.08 60.4162L466.2 61.1974C467.621 71.6378 476.499 78.0653 490.952 78.0653C505.085 78.0653 515.206 70.8565 515.241 60.0966C515.206 52.2131 510.057 47.4901 499.474 45.3239L489.602 43.3352C484.524 42.2344 482.642 40.4943 482.678 37.8665C482.642 34.5994 486.335 32.4688 491.023 32.4688C496.278 32.4688 499.403 35.3452 500.149 38.8608L513.999 38.0085Z" fill="#00E7C0"/>
<defs>
<linearGradient id="paint0_linear" x1="257.5" y1="-20" x2="257.5" y2="77" gradientUnits="userSpaceOnUse">
<stop stop-color="#3D3F42"/>
<stop offset="1" stop-color="#00E7C0"/>
</linearGradient>
</defs>
</svg>
